<?xml version="1.0" ?>
<svg width="100px" height="100px" viewBox="0 0 100 100" style="enable-background:new 0 0 100 100;" version="1.1" xml:space="preserve" xmlns="http://www.w3.org/2000/svg" xmlns:xlink="http://www.w3.org/1999/xlink"><g id="tree"/><g id="plant"/><g id="flower"/><g id="flower_pot"/><g id="rose"/><g id="garden"/><g id="fance"/><g id="floral"/><g id="sunflower"/><g id="sprinkle"/><g id="water_hose"/><g id="planting"/><g id="fertilizer"/><g id="bee"/><g id="butterfly"><path d="M84,6.5C70.5,3.4,60.1,16,56,21.9c0-1.7-0.8-3.2-1.9-4.3c0.4-2,1.7-6,4.2-7.2c1.2-0.6,2.6-0.5,4.3,0.3   c0.5,0.3,1.1,0.1,1.3-0.4c0.3-0.5,0.1-1.1-0.4-1.3c-2.2-1.1-4.3-1.3-6.1-0.3c-3.1,1.6-4.5,5.7-5.1,7.9C51.6,16.2,50.8,16,50,16   s-1.6,0.2-2.3,0.5c-0.6-2.2-2-6.3-5.1-7.9c-1.8-0.9-3.9-0.8-6.1,0.3c-0.5,0.3-0.7,0.9-0.4,1.3c0.3,0.5,0.8,0.7,1.3,0.4   c1.6-0.8,3-0.9,4.3-0.3c2.7,1.4,3.8,5.7,4.2,7.2c-1.2,1.1-1.9,2.6-1.9,4.3C39.9,16,29.5,3.4,16,6.5C9,8.1,3.6,17.6,4,27.2   C4.3,33.8,8,49,34.7,53.6c-4.6,2.6-13.5,9.1-19.3,22.9c-3.2,7.6-2,14.1,3.1,16.5c1.3,0.6,2.7,0.9,4.3,0.9c6.5,0,14.9-5.5,21.9-17.5   c0.7,5.2,2,10.3,3.7,15.3l0.6,1.6c0.1,0.4,0.5,0.7,0.9,0.7s0.8-0.3,0.9-0.7l0.6-1.6c1.8-5,3-10.1,3.7-15.3   C62.3,88.6,70.7,94,77.2,94c1.5,0,3-0.3,4.3-0.9c5.1-2.4,6.3-8.9,3.1-16.5c-5.8-13.9-14.7-20.4-19.3-22.9C92,49,95.7,33.8,96,27.2   C96.4,17.6,91,8.1,84,6.5z M58.8,50.8c-0.5,0.1-0.8,0.4-0.9,0.9c0,0.5,0.2,0.9,0.7,1c0.1,0,7.6,2.9,11.9,13.2   c1.5,3.5,1.1,6.5-1,7.5c-3.2,1.5-9-1.4-13.5-9.8V36.1c1-1.6,7.3-11.4,15.3-9.6c2.9,0.7,5.9,5.1,5.7,10.3   C76.8,40.3,74.7,48.7,58.8,50.8z M30.5,73.4c-2.1-1-2.5-3.9-1-7.5c4.3-10.3,11.8-13.1,11.9-13.2c0.4-0.2,0.7-0.6,0.7-1   c0-0.5-0.4-0.8-0.9-0.9c-15.9-2.1-18-10.5-18.1-14c-0.3-5.3,2.8-9.7,5.7-10.3c8-1.8,14.4,8,15.3,9.6v27.4   C39.5,71.9,33.6,74.9,30.5,73.4z M6,27.1C5.6,17.6,11.1,9.6,16.4,8.4C31.3,5,42.7,23.4,44,25.6v6.9c-2.8-3.7-8.5-9.6-15.8-8   c-4.2,1-7.5,6.6-7.2,12.4c0.2,3.5,2,11.5,14.4,14.8C9.8,47.4,6.3,33.2,6,27.1z M44.1,73.5C36,88.8,25.3,94.1,19.4,91.3   c-4.1-1.9-4.9-7.4-2.2-13.9c4.1-9.8,9.9-15.8,14.4-19.2c-1.4,1.9-2.9,4.2-4,7c-2.3,5.6-0.4,8.9,2,10.1c0.8,0.4,1.7,0.6,2.6,0.6   c3.5,0,8-2.6,11.8-8.4c0,2,0.1,3.9,0.3,5.9C44.3,73.3,44.2,73.4,44.1,73.5z M54,65.8c0,8.2-1.3,16.4-4,24.2c-2.7-7.8-4-15.9-4-24.2   V22c0-2.2,1.8-4,4-4s4,1.8,4,4V65.8z M82.8,77.4c2.7,6.5,1.9,12-2.2,13.9c-5.9,2.8-16.5-2.5-24.7-17.8c-0.1-0.1-0.1-0.2-0.2-0.3   c0.2-1.9,0.3-3.9,0.3-5.9c3.9,5.8,8.3,8.4,11.8,8.4c0.9,0,1.8-0.2,2.6-0.6c2.4-1.1,4.4-4.5,2-10.1c-1.2-2.8-2.6-5.2-4.1-7   C72.8,61.5,78.6,67.5,82.8,77.4z M94,27.1c-0.3,6.1-3.8,20.3-29.4,24.6C77,48.4,78.8,40.5,79,36.9c0.3-5.7-3-11.4-7.2-12.4   c-7.2-1.7-13,4.2-15.8,8v-6.9C57.3,23.4,68.7,5,83.6,8.4C88.9,9.6,94.4,17.6,94,27.1z"/></g><g id="shovel"/><g id="ladybug"/><g id="watering"/><g id="hanging_pot"/><g id="green_house"/></svg>